# This file uses centimeters as units for non-parametric coordinates.

mtllib feather_new.mtl
g default
v 0.008944 -1.265333 -0.000403
v -0.001577 -1.265336 0.024164
v -0.022766 -1.265347 0.005486
v -0.007131 -1.265346 -0.022364
v 0.003378 -0.006267 -0.020570
v 0.030247 -0.007453 0.002724
v 0.002282 -0.007361 0.025575
v -0.014445 -0.006470 0.003240
v -0.006238 -1.852820 -0.012329
v 0.000577 -1.853547 -0.001528
v -0.012534 -1.852688 0.000799
v -0.003873 -1.854606 0.009689
v 0.075914 -0.025935 0.000000
v 0.192354 -0.305013 0.000000
v 0.186993 -0.584400 0.000000
v 0.159129 -1.456443 0.000000
v 0.108279 -1.624937 0.000000
v 0.047627 -1.977286 0.000000
v 0.001694 -0.012257 -0.014336
v 0.001694 -0.319788 -0.014336
v 0.001875 -0.583623 -0.014336
v 0.001135 -1.493798 -0.014336
v 0.000985 -1.664036 -0.014336
v 0.001443 -2.057082 -0.004730
v -0.052986 -0.013115 0.000000
v -0.146487 -0.313221 0.000000
v -0.168498 -0.583794 0.000000
v -0.138298 -1.520982 0.000000
v -0.137244 -1.690876 0.000000
v -0.046702 -2.045595 0.000000
v 0.152333 -0.747027 0.000000
v 0.001445 -0.765215 -0.014336
v -0.158668 -0.786321 0.000000
v 0.075914 -0.025935 0.003354
v 0.192354 -0.305013 0.003354
v 0.001694 -0.319788 0.017690
v 0.001694 -0.012257 0.017690
v 0.186993 -0.584400 0.003354
v 0.001875 -0.583623 0.017690
v 0.152333 -0.747027 0.003354
v 0.001445 -0.765215 0.017690
v 0.159129 -1.456443 0.003354
v 0.108279 -1.624937 0.003354
v 0.000985 -1.664036 0.017690
v 0.001135 -1.493798 0.017690
v 0.047627 -1.977286 0.003354
v 0.001443 -2.057082 0.008084
v -0.146487 -0.313221 0.003354
v -0.052986 -0.013115 0.003354
v -0.168498 -0.583794 0.003354
v -0.158668 -0.786321 0.003354
v -0.137244 -1.690876 0.003354
v -0.138298 -1.520982 0.003354
v -0.046702 -2.045595 0.003354
vt 0.625000 0.000000
vt 0.875000 0.000000
vt 0.875000 0.250000
vt 0.625000 0.250000
vt 0.440704 0.750000
vt 0.625000 0.750000
vt 0.625000 1.000000
vt 0.440704 1.000000
vt 0.440704 0.250000
vt 0.440704 0.000000
vt 0.625000 0.000000
vt 0.625000 0.250000
vt 0.440704 0.500000
vt 0.625000 0.500000
vt 0.875000 0.000000
vt 0.875000 0.250000
vt 0.000000 0.000000
vt 0.200000 0.000000
vt 0.200000 0.250000
vt 0.000000 0.250000
vt 0.400000 0.000000
vt 0.400000 0.250000
vt 0.433224 0.000000
vt 0.433224 0.250000
vt 0.600000 0.000000
vt 0.800000 0.000000
vt 0.800000 0.250000
vt 0.600000 0.250000
vt 1.000000 0.000000
vt 1.000000 0.250000
vt 0.200000 0.500000
vt 0.000000 0.500000
vt 0.400000 0.500000
vt 0.433224 0.500000
vt 0.800000 0.500000
vt 0.600000 0.500000
vt 1.000000 0.500000
vt 0.000000 0.000000
vt 0.000000 0.250000
vt 0.200000 0.250000
vt 0.200000 0.000000
vt 0.400000 0.250000
vt 0.400000 0.000000
vt 0.433224 0.250000
vt 0.433224 0.000000
vt 0.600000 0.000000
vt 0.600000 0.250000
vt 0.800000 0.250000
vt 0.800000 0.000000
vt 1.000000 0.250000
vt 1.000000 0.000000
vt 0.000000 0.500000
vt 0.200000 0.500000
vt 0.400000 0.500000
vt 0.433224 0.500000
vt 0.600000 0.500000
vt 0.800000 0.500000
vt 1.000000 0.500000
vt 0.000000 0.000000
vt 0.200000 0.000000
vt 0.000000 0.250000
vt 0.400000 0.000000
vt 0.433224 0.000000
vt 0.600000 0.000000
vt 0.800000 0.000000
vt 1.000000 0.000000
vt 1.000000 0.250000
vt 0.200000 0.500000
vt 0.000000 0.500000
vt 0.400000 0.500000
vt 0.433224 0.500000
vt 0.800000 0.500000
vt 0.600000 0.500000
vt 1.000000 0.500000
vn -0.077940 -0.994333 -0.072295
vn -0.077940 -0.994333 -0.072295
vn -0.077940 -0.994333 -0.072295
vn -0.077940 -0.994333 -0.072295
vn 0.606521 0.000101 -0.795068
vn 0.608461 0.000269 -0.793583
vn 0.714396 0.001263 -0.699741
vn 0.715417 0.001167 -0.698697
vn 0.633629 -0.005231 0.773619
vn 0.793334 -0.003936 0.608773
vn 0.794221 -0.003991 0.607615
vn 0.633303 -0.005248 0.773886
vn -0.680097 -0.004852 0.733106
vn -0.675067 -0.008626 0.737706
vn -0.675038 -0.008567 0.737733
vn -0.679773 -0.004856 0.733407
vn -0.758886 0.000230 -0.651224
vn -0.829313 -0.003633 -0.558773
vn -0.829053 -0.003601 -0.559158
vn -0.759349 0.000225 -0.650684
vn 0.714396 0.001263 -0.699741
vn 0.819601 -0.009551 -0.572855
vn 0.819601 -0.009551 -0.572855
vn 0.715417 0.001167 -0.698697
vn -0.829313 -0.003633 -0.558773
vn -0.881643 -0.010497 -0.471800
vn -0.881643 -0.010497 -0.471800
vn -0.829053 -0.003601 -0.559158
vn -0.675067 -0.008626 0.737706
vn -0.678961 -0.016532 0.733988
vn -0.678962 -0.016532 0.733988
vn -0.675038 -0.008567 0.737733
vn 0.793334 -0.003936 0.608773
vn 0.922583 -0.013462 0.385565
vn 0.922583 -0.013462 0.385565
vn 0.794221 -0.003991 0.607615
vn 0.107507 0.021340 0.993975
vn -0.009028 0.021551 0.999727
vn -0.000556 0.009534 0.999954
vn 0.088493 0.007968 0.996045
vn 0.088493 0.007968 0.996045
vn -0.000556 0.009534 0.999954
vn -0.001352 -0.001292 0.999998
vn 0.079171 -0.003338 0.996855
vn 0.079171 -0.003338 0.996855
vn -0.001352 -0.001292 0.999998
vn 0.002737 -0.001375 0.999995
vn 0.090624 -0.001881 0.995883
vn 0.094383 -0.001346 0.995535
vn -0.008868 -0.002077 0.999959
vn 0.006871 -0.017452 0.999824
vn 0.123289 -0.019635 0.992177
vn 0.123289 -0.019635 0.992177
vn 0.006871 -0.017452 0.999824
vn -0.043697 -0.024875 0.998735
vn 0.141683 -0.024195 0.989616
vn -0.009028 0.021551 0.999727
vn -0.139326 0.021439 0.990014
vn -0.108221 0.010314 0.994073
vn -0.000556 0.009534 0.999954
vn -0.000556 0.009534 0.999954
vn -0.108221 0.010314 0.994073
vn -0.088156 0.001161 0.996106
vn -0.001352 -0.001292 0.999998
vn -0.001352 -0.001292 0.999998
vn -0.088156 0.001161 0.996106
vn -0.093282 -0.001469 0.995639
vn 0.002737 -0.001375 0.999995
vn -0.008868 -0.002077 0.999959
vn -0.096685 -0.001085 0.995315
vn -0.100842 -0.015531 0.994781
vn 0.006871 -0.017452 0.999824
vn -0.043697 -0.024875 0.998735
vn 0.006871 -0.017452 0.999824
vn -0.100842 -0.015531 0.994781
vn -0.099708 -0.024913 0.994705
vn 0.090624 -0.001881 0.995883
vn 0.002737 -0.001375 0.999995
vn -0.008868 -0.002077 0.999959
vn 0.094383 -0.001346 0.995535
vn -0.093282 -0.001469 0.995639
vn -0.096685 -0.001085 0.995315
vn -0.008868 -0.002077 0.999959
vn 0.002737 -0.001375 0.999995
vn 0.107507 0.021340 -0.993975
vn 0.088493 0.007968 -0.996045
vn -0.000556 0.009534 -0.999954
vn -0.009028 0.021551 -0.999727
vn 0.088493 0.007968 -0.996045
vn 0.079171 -0.003338 -0.996855
vn -0.001352 -0.001292 -0.999998
vn -0.000556 0.009534 -0.999954
vn 0.079171 -0.003338 -0.996855
vn 0.090624 -0.001881 -0.995883
vn 0.002737 -0.001375 -0.999995
vn -0.001352 -0.001292 -0.999998
vn 0.094383 -0.001346 -0.995535
vn 0.123289 -0.019635 -0.992177
vn 0.006871 -0.017452 -0.999824
vn -0.008868 -0.002077 -0.999959
vn 0.123289 -0.019635 -0.992177
vn 0.141683 -0.024195 -0.989616
vn -0.043697 -0.024875 -0.998735
vn 0.006871 -0.017452 -0.999824
vn -0.009028 0.021551 -0.999727
vn -0.000556 0.009534 -0.999954
vn -0.108221 0.010314 -0.994073
vn -0.139326 0.021439 -0.990014
vn -0.000556 0.009534 -0.999954
vn -0.001352 -0.001292 -0.999998
vn -0.088156 0.001161 -0.996106
vn -0.108221 0.010314 -0.994073
vn -0.001352 -0.001292 -0.999998
vn 0.002737 -0.001375 -0.999995
vn -0.093282 -0.001469 -0.995639
vn -0.088156 0.001161 -0.996106
vn -0.008868 -0.002077 -0.999959
vn 0.006871 -0.017452 -0.999824
vn -0.100842 -0.015531 -0.994781
vn -0.096685 -0.001085 -0.995315
vn -0.043697 -0.024875 -0.998735
vn -0.099708 -0.024913 -0.994705
vn -0.100842 -0.015531 -0.994781
vn 0.006871 -0.017452 -0.999824
vn 0.090624 -0.001881 -0.995883
vn 0.094383 -0.001346 -0.995535
vn -0.008868 -0.002077 -0.999959
vn 0.002737 -0.001375 -0.999995
vn -0.093282 -0.001469 -0.995639
vn 0.002737 -0.001375 -0.999995
vn -0.008868 -0.002077 -0.999959
vn -0.096685 -0.001085 -0.995315
vn 0.922892 0.385059 -0.000000
vn 0.922892 0.385059 -0.000000
vn 0.980788 0.195078 -0.000000
vn 0.980788 0.195078 -0.000000
vn 0.101409 0.994845 0.000000
vn 0.101409 0.994845 0.000000
vn 0.181234 0.983440 0.000000
vn 0.181234 0.983440 0.000000
vn 0.980788 0.195078 -0.000000
vn 0.980788 0.195078 -0.000000
vn 0.995926 -0.090174 -0.000000
vn 0.995926 -0.090174 -0.000000
vn 0.995926 -0.090174 -0.000000
vn 0.995926 -0.090174 -0.000000
vn 0.999490 -0.031935 -0.000000
vn 0.999490 -0.031935 -0.000000
vn 0.998743 -0.050118 -0.000000
vn 0.998743 -0.050118 -0.000000
vn 0.977844 -0.209337 -0.000000
vn 0.977844 -0.209337 -0.000000
vn 0.977844 -0.209337 -0.000000
vn 0.977844 -0.209337 -0.000000
vn 0.952776 -0.303675 -0.000000
vn 0.952776 -0.303675 -0.000000
vn 0.952776 -0.303675 -0.000000
vn 0.952776 -0.303675 -0.000000
vn 0.865490 -0.500926 -0.000000
vn 0.865490 -0.500926 -0.000000
vn -0.980124 0.198387 0.000000
vn -0.980124 0.198387 0.000000
vn -0.954735 0.297457 0.000000
vn -0.954735 0.297457 0.000000
vn -0.015681 0.999877 0.000000
vn -0.015681 0.999877 0.000000
vn 0.101409 0.994845 0.000000
vn 0.101409 0.994845 0.000000
vn -0.999669 0.025737 0.000000
vn -0.999669 0.025737 0.000000
vn -0.980124 0.198387 0.000000
vn -0.980124 0.198387 0.000000
vn -0.999481 -0.032207 0.000000
vn -0.999481 -0.032207 0.000000
vn -0.999669 0.025737 0.000000
vn -0.999669 0.025737 0.000000
vn -0.985098 -0.171995 0.000000
vn -0.985098 -0.171995 0.000000
vn -0.999720 -0.023678 0.000000
vn -0.999720 -0.023678 0.000000
vn -0.232074 -0.972698 -0.000000
vn -0.232074 -0.972698 -0.000000
vn -0.232074 -0.972698 -0.000000
vn -0.232074 -0.972698 -0.000000
vn -0.968934 -0.247319 0.000000
vn -0.968934 -0.247319 0.000000
vn -0.985098 -0.171995 0.000000
vn -0.985098 -0.171995 0.000000
vn 0.999490 -0.031935 -0.000000
vn 0.999490 -0.031935 -0.000000
vn 0.998743 -0.050118 -0.000000
vn 0.998743 -0.050118 -0.000000
vn -0.999720 -0.023678 0.000000
vn -0.999720 -0.023678 0.000000
vn -0.999481 -0.032207 0.000000
vn -0.999481 -0.032207 0.000000
s off
g feather_new:Mesh
usemtl feather_new:initialShadingGroup
f 10/1/1 12/4/2 11/3/3 9/2/4
f 5/5/5 6/8/6 1/7/7 4/6/8
f 7/9/9 2/12/10 1/11/11 6/10/12
f 8/13/13 3/14/14 2/12/15 7/9/16
f 5/5/17 4/6/18 3/14/19 8/13/20
f 1/11/21 10/1/22 9/2/23 4/15/24
f 4/15/25 9/2/26 11/3/27 3/16/28
f 3/16/29 11/3/30 12/4/31 2/12/32
f 2/12/33 12/4/34 10/1/35 1/11/36
f 34/17/37 37/20/38 36/19/39 35/18/40
f 35/18/41 36/19/42 39/22/43 38/21/44
f 38/21/45 39/22/46 41/24/47 40/23/48
f 42/25/49 45/28/50 44/27/51 43/26/52
f 43/26/53 44/27/54 47/30/55 46/29/56
f 37/20/57 49/32/58 48/31/59 36/19/60
f 36/19/61 48/31/62 50/33/63 39/22/64
f 39/22/65 50/33/66 51/34/67 41/24/68
f 45/28/69 53/36/70 52/35/71 44/27/72
f 47/30/73 44/27/74 52/35/75 54/37/76
f 40/23/77 41/24/78 45/28/79 42/25/80
f 51/34/81 53/36/82 45/28/83 41/24/84
f 13/38/85 14/41/86 20/40/87 19/39/88
f 14/41/89 15/43/90 21/42/91 20/40/92
f 15/43/93 31/45/94 32/44/95 21/42/96
f 16/46/97 17/49/98 23/48/99 22/47/100
f 17/49/101 18/51/102 24/50/103 23/48/104
f 19/39/105 20/40/106 26/53/107 25/52/108
f 20/40/109 21/42/110 27/54/111 26/53/112
f 21/42/113 32/44/114 33/55/115 27/54/116
f 22/47/117 23/48/118 29/57/119 28/56/120
f 24/50/121 30/58/122 29/57/123 23/48/124
f 31/45/125 16/46/126 22/47/127 32/44/128
f 33/55/129 32/44/130 22/47/131 28/56/132
f 13/59/133 34/17/134 35/18/135 14/60/136
f 19/61/137 37/20/138 34/17/139 13/59/140
f 14/60/141 35/18/142 38/21/143 15/62/144
f 15/62/145 38/21/146 40/23/147 31/63/148
f 16/64/149 42/25/150 43/26/151 17/65/152
f 17/65/153 43/26/154 46/29/155 18/66/156
f 18/66/157 46/29/158 47/30/159 24/67/160
f 26/68/161 48/31/162 49/32/163 25/69/164
f 25/69/165 49/32/166 37/20/167 19/61/168
f 27/70/169 50/33/170 48/31/171 26/68/172
f 33/71/173 51/34/174 50/33/175 27/70/176
f 29/72/177 52/35/178 53/36/179 28/73/180
f 24/67/181 47/30/182 54/37/183 30/74/184
f 30/74/185 54/37/186 52/35/187 29/72/188
f 31/63/189 40/23/190 42/25/191 16/64/192
f 28/73/193 53/36/194 51/34/195 33/71/196
